# xmcd CD database file
#
# Track frame offsets:
#	150
#	28057
#	54535
#	84017
#	107747
#	166467
#	213345
#	238907
#
# Disc length: 3552 seconds
#
# Revision: 0
# Processed by: cddbd v1.5.2PL0 Copyright (c) Steve Scherf et al.
# Submitted via: CDex 1.70beta2
#
DISCID=630dde08
DTITLE=Dorothy Donegan - Dorothy Donegan Trio
DYEAR=1900
DGENRE=Jazz
TTITLE0=Rosetta
TTITLE1=Medley - When I fall in love, The way we were
TTITLE2=The best things in live are free
TTITLE3=Medley - Pennies from heaven, you're nobody till somebody loves you
TTITLE4=Medley - Out of nowhere, Sweet Lorraine, Send in the clowns
TTITLE5=Take the A Train
TTITLE6=Medley - You're so beautiful, Edmund Thiogpen's Gospel
TTITLE7=Satin Doll
EXTD=
EXTT0=
EXTT1=
EXTT2=
EXTT3=
EXTT4=
EXTT5=
EXTT6=
EXTT7=
PLAYORDER=
